<?xml version="1.0" encoding="UTF-8"?>
<svg width="100pt" height="100pt" version="1.1" viewBox="0 0 100 100" xmlns="http://www.w3.org/2000/svg">
 <g fill="#fff">
  <path d="m82.555 38.836c3.8711-6.9375 8.0703-15.516 8.0703-20.086 0-5.582-2.9766-10.742-7.8125-13.531-4.8359-2.793-10.789-2.793-15.625 0-4.8359 2.7891-7.8125 7.9492-7.8125 13.531 0.003906 0.54297 0.054688 1.082 0.14062 1.6172-0.59375-0.17578-1.1875-0.34375-1.7617-0.46875h0.003906c-3.0508-0.76172-6.1797-1.1484-9.3203-1.1484-10.359 0-20.297 4.1172-27.621 11.441-7.3242 7.3242-11.441 17.262-11.441 27.621s4.1172 20.297 11.441 27.621c7.3242 7.3242 17.262 11.441 27.621 11.441s20.297-4.1172 27.621-11.441c7.3242-7.3242 11.441-17.262 11.441-27.621-0.007812-6.6445-1.7109-13.176-4.9453-18.977zm-7.5547-32.586c6.8984 0.007812 12.492 5.6016 12.5 12.5 0 5.3984-8.0859 19.602-12.5 26.75-4.4141-7.1484-12.5-21.352-12.5-26.75 0.007812-6.8984 5.6016-12.492 12.5-12.5zm-1.3164 43.031c0.28906 0.44922 0.78516 0.71875 1.3164 0.71875s1.0273-0.26953 1.3164-0.71875c0.49219-0.76562 2.2578-3.5469 4.3906-7.207 1.4922 3.0352 2.5352 6.2734 3.1016 9.6133l-3.25 1.5938c-0.43359 0.21484-0.74609 0.61719-0.83984 1.0938l-3.0664 15.328-2.6562 3.9961 1.0039-11.059c0.03125-0.33203-0.046875-0.66016-0.21875-0.94531l-4.6875-7.8125c-0.375-0.62891-1.1367-0.91016-1.832-0.67969l-8.5938 2.8672-5.0781-3.8086-1.3594-9.5234 7.2578-7.2617 0.003907 0.003907c0.28906-0.29688 0.44922-0.69141 0.44531-1.1055v-4.6875c0-0.67188-0.42969-1.2695-1.0703-1.4844l-3.1172-1.0391 1.5625-3.8906c0.69141 0.19531 1.4062 0.42187 2.1367 0.67969 3.1055 9.375 12.027 23.445 13.234 25.328zm-38.625-24.812 2.4414 1.4297v7.5117l-11.637 5.8164c-0.42969 0.21484-0.73828 0.62109-0.83203 1.0938l-1.3125 6.5547h-4.9688c-0.86328 0-1.5625 0.69922-1.5625 1.5625v4.6875c0 0.33984 0.10938 0.66797 0.3125 0.9375l4.6875 6.25c0.20703 0.27344 0.49219 0.46875 0.82031 0.5625l10.344 2.957 4.375 7.2852c0.25 0.41016 0.67188 0.6875 1.1484 0.74609l10.75 1.3438-1.0312 4.1211-7.5 7.5c-0.29688 0.29297-0.46875 0.69141-0.46875 1.1094v4.6875c0 0.49219 0.23047 0.95312 0.625 1.25l1.9922 1.4961c-1.7344-0.25391-3.4531-0.63672-5.1328-1.1406l-3.8359-9.9766v-0.003906c-0.14063-0.36328-0.41406-0.66016-0.76172-0.83594l-5.9219-2.9609-4.1523-5.5352v-7.293c0-0.36719-0.12891-0.71875-0.36328-1l-7.8125-9.375c-0.46094-0.55859-1.2461-0.72656-1.8984-0.40625l-0.76172 0.38281c0.49609-6.7148 2.8594-13.156 6.8281-18.59 3.9688-5.4375 9.3828-9.6523 15.629-12.168zm-22.535 34.297 1.1289-0.5625 6.6602 7.9883v7.2461c0 0.33984 0.10938 0.66797 0.3125 0.9375l4.6875 6.25c0.14453 0.19531 0.33203 0.35938 0.55078 0.46875l5.707 2.8516 2.6406 6.875c-6.293-2.7188-11.676-7.1836-15.52-12.863-3.8398-5.6797-5.9805-12.336-6.168-19.191zm36.418 34.973-5.1914-3.8945v-3.2578l7.3555-7.3555c0.19922-0.19922 0.33984-0.45312 0.41016-0.72656l1.5625-6.25c0.10938-0.43359 0.027344-0.89453-0.22656-1.2617-0.25391-0.36719-0.65234-0.61328-1.0938-0.66797l-11.746-1.4688-4.2969-7.1602c-0.20312-0.33984-0.53125-0.58984-0.91016-0.69531l-10.43-2.9844-4.0625-5.4102v-2.6055h4.6875c0.74219 0 1.3828-0.52344 1.5312-1.25l1.4141-7.0625 11.816-5.9062c0.53125-0.26562 0.86719-0.8125 0.86328-1.4062v-9.375c0-0.55469-0.30078-1.0703-0.78125-1.3477l-0.86719-0.50781c3.082-0.84375 6.2656-1.2695 9.4609-1.2695 2.2852 0 4.5625 0.22266 6.8008 0.66406l-2 5c-0.16016 0.39844-0.14844 0.84766 0.03125 1.2383 0.17969 0.39062 0.51562 0.69141 0.92578 0.82422l3.6172 1.2109v2.9141l-7.3555 7.3555c-0.34766 0.34766-0.51172 0.83984-0.44141 1.3281l1.5625 10.938c0.058594 0.41016 0.27734 0.77734 0.60938 1.0273l6.25 4.6875c0.41016 0.30859 0.94531 0.39453 1.4297 0.23438l8.1875-2.7344 3.7812 6.3008-1.5234 16.684c-0.0625 0.71094 0.36328 1.375 1.0352 1.6133 0.17188 0.058594 0.34766 0.089844 0.52734 0.089844 0.52344 0 1.0117-0.26172 1.3008-0.69531l6.25-9.375c0.11328-0.17188 0.19141-0.35938 0.23047-0.5625l2.9688-14.871 1.6172-0.79688c0.078124 0.94531 0.125 1.9023 0.125 2.8594v0.003906c-0.011719 9.4375-3.7305 18.496-10.359 25.215-6.625 6.7188-15.629 10.566-25.066 10.711z"/>
  <path d="m82.812 18.75c0-3.1602-1.9023-6.0078-4.8242-7.2188-2.918-1.207-6.2773-0.53906-8.5117 1.6953-2.2344 2.2344-2.9023 5.5938-1.6953 8.5117 1.2109 2.9219 4.0586 4.8242 7.2188 4.8242 4.3125-0.003906 7.8086-3.5 7.8125-7.8125zm-12.5 0c0-1.8945 1.1406-3.6055 2.8945-4.332 1.75-0.72266 3.7656-0.32422 5.1094 1.0156 1.3398 1.3438 1.7383 3.3594 1.0156 5.1094-0.72656 1.7539-2.4375 2.8945-4.332 2.8945-2.5898 0-4.6875-2.0977-4.6875-4.6875z"/>
 </g>
</svg>
